<svg xmlns="http://www.w3.org/2000/svg" xmlns:xlink="http://www.w3.org/1999/xlink" contentStyleType="text/css" height="712px" preserveAspectRatio="none" style="width:503px;height:712px;background:#FFFFFF;" version="1.1" viewBox="0 0 503 712" width="503px" zoomAndPan="magnify"><defs/><g><ellipse cx="242.5" cy="16" fill="#222222" rx="10" ry="10" style="stroke:#222222;stroke-width:1.0;"/><g id="Init"><rect fill="#F1F1F1" height="50" rx="12.5" ry="12.5" style="stroke:#181818;stroke-width:0.5;" width="50" x="217.5" y="86"/><line style="stroke:#181818;stroke-width:0.5;" x1="217.5" x2="267.5" y1="112.2969" y2="112.2969"/><text fill="#000000" font-family="sans-serif" font-size="14" lengthAdjust="spacing" textLength="20" x="232.5" y="103.9951">Init</text></g><g id="Idle"><rect fill="#F1F1F1" height="50" rx="12.5" ry="12.5" style="stroke:#181818;stroke-width:0.5;" width="50" x="217.5" y="196"/><line style="stroke:#181818;stroke-width:0.5;" x1="217.5" x2="267.5" y1="222.2969" y2="222.2969"/><text fill="#000000" font-family="sans-serif" font-size="14" lengthAdjust="spacing" textLength="24" x="230.5" y="213.9951">Idle</text></g><g id="CyclicID"><rect fill="#F1F1F1" height="50" rx="12.5" ry="12.5" style="stroke:#181818;stroke-width:0.5;" width="73" x="36" y="434"/><line style="stroke:#181818;stroke-width:0.5;" x1="36" x2="109" y1="460.2969" y2="460.2969"/><text fill="#000000" font-family="sans-serif" font-size="14" lengthAdjust="spacing" textLength="53" x="46" y="451.9951">CyclicID</text></g><g id="CheckFrame"><rect fill="#F1F1F1" height="50" rx="12.5" ry="12.5" style="stroke:#181818;stroke-width:0.5;" width="107" x="326" y="323"/><line style="stroke:#181818;stroke-width:0.5;" x1="326" x2="433" y1="349.2969" y2="349.2969"/><text fill="#000000" font-family="sans-serif" font-size="14" lengthAdjust="spacing" textLength="87" x="336" y="340.9951">CheckFrame</text></g><g id="ParseFrame"><rect fill="#F1F1F1" height="50" rx="12.5" ry="12.5" style="stroke:#181818;stroke-width:0.5;" width="102" x="321.5" y="434"/><line style="stroke:#181818;stroke-width:0.5;" x1="321.5" x2="423.5" y1="460.2969" y2="460.2969"/><text fill="#000000" font-family="sans-serif" font-size="14" lengthAdjust="spacing" textLength="82" x="331.5" y="451.9951">ParseFrame</text></g><g id="ProcessRequest"><rect fill="#F1F1F1" height="50" rx="12.5" ry="12.5" style="stroke:#181818;stroke-width:0.5;" width="135" x="305" y="545"/><line style="stroke:#181818;stroke-width:0.5;" x1="305" x2="440" y1="571.2969" y2="571.2969"/><text fill="#000000" font-family="sans-serif" font-size="14" lengthAdjust="spacing" textLength="115" x="315" y="562.9951">ProcessRequest</text></g><g id="SendResponse"><rect fill="#F1F1F1" height="50" rx="12.5" ry="12.5" style="stroke:#181818;stroke-width:0.5;" width="127" x="369" y="656"/><line style="stroke:#181818;stroke-width:0.5;" x1="369" x2="496" y1="682.2969" y2="682.2969"/><text fill="#000000" font-family="sans-serif" font-size="14" lengthAdjust="spacing" textLength="107" x="379" y="673.9951">SendResponse</text></g><!--link *start* to Init--><g id="link_*start*_Init"><path d="M242.5,26.26 C242.5,39.95 242.5,60.07 242.5,79.52 " fill="none" id="*start*-to-Init" style="stroke:#181818;stroke-width:1.0;"/><polygon fill="#181818" points="242.5,85.52,246.5,76.52,242.5,80.52,238.5,76.52,242.5,85.52" style="stroke:#181818;stroke-width:1.0;"/></g><!--link Init to Idle--><g id="link_Init_Idle"><path d="M242.5,136.24 C242.5,154.02 242.5,172.08 242.5,189.84 " fill="none" id="Init-to-Idle" style="stroke:#181818;stroke-width:1.0;"/><polygon fill="#181818" points="242.5,195.84,246.5,186.84,242.5,190.84,238.5,186.84,242.5,195.84" style="stroke:#181818;stroke-width:1.0;"/></g><!--link Idle to CyclicID--><g id="link_Idle_CyclicID"><path d="M217.34,224.97 C170.01,232.09 68.75,254.93 27.5,323 C6,358.5 28.5702,400.6882 49.0502,428.8382 " fill="none" id="Idle-to-CyclicID" style="stroke:#181818;stroke-width:1.0;"/><polygon fill="#181818" points="52.58,433.69,50.5198,424.059,49.6385,429.6468,44.0507,428.7655,52.58,433.69" style="stroke:#181818;stroke-width:1.0;"/><text fill="#000000" font-family="sans-serif" font-size="13" lengthAdjust="spacing" textLength="71" x="28.5" y="352.5669">Every 5min</text></g><!--link CyclicID to Idle--><g id="link_CyclicID_Idle"><path d="M89.96,433.77 C122.55,388.52 188.7831,296.5784 221.4431,251.2384 " fill="none" id="CyclicID-to-Idle" style="stroke:#181818;stroke-width:1.0;"/><polygon fill="#181818" points="224.95,246.37,216.444,251.3347,222.0276,250.427,222.9353,256.0106,224.95,246.37" style="stroke:#181818;stroke-width:1.0;"/></g><!--link Idle to CheckFrame--><g id="link_Idle_CheckFrame"><path d="M246.64,246.45 C250.24,261.39 256.8,280.04 268.5,293 C283.73,309.86 299.8482,319.6863 319.9882,328.1463 " fill="none" id="Idle-to-CheckFrame" style="stroke:#181818;stroke-width:1.0;"/><polygon fill="#181818" points="325.52,330.47,318.7715,323.2966,320.9102,328.5336,315.6732,330.6723,325.52,330.47" style="stroke:#181818;stroke-width:1.0;"/><text fill="#000000" font-family="sans-serif" font-size="13" lengthAdjust="spacing" textLength="89" x="269.5" y="289.0669">Data received</text></g><!--link CheckFrame to Idle--><g id="link_CheckFrame_Idle"><path d="M379.35,322.58 C378.06,307.66 374.15,289 363.5,276 C339.3,246.46 301.4681,233.8171 273.7381,227.6771 " fill="none" id="CheckFrame-to-Idle" style="stroke:#181818;stroke-width:1.0;"/><polygon fill="#181818" points="267.88,226.38,275.8024,232.2311,272.7618,227.4609,277.5319,224.4203,267.88,226.38" style="stroke:#181818;stroke-width:1.0;"/><text fill="#000000" font-family="sans-serif" font-size="13" lengthAdjust="spacing" textLength="66" x="373.5" y="289.0669">Data Error</text></g><!--link CheckFrame to ParseFrame--><g id="link_CheckFrame_ParseFrame"><path d="M377.93,373.46 C376.78,391.41 375.604,409.7023 374.454,427.6323 " fill="none" id="CheckFrame-to-ParseFrame" style="stroke:#181818;stroke-width:1.0;"/><polygon fill="#181818" points="374.07,433.62,378.6379,424.8945,374.39,428.6303,370.6543,424.3824,374.07,433.62" style="stroke:#181818;stroke-width:1.0;"/></g><!--link ParseFrame to ProcessRequest--><g id="link_ParseFrame_ProcessRequest"><path d="M372.5,484.46 C372.5,502.41 372.5,520.69 372.5,538.62 " fill="none" id="ParseFrame-to-ProcessRequest" style="stroke:#181818;stroke-width:1.0;"/><polygon fill="#181818" points="372.5,544.62,376.5,535.62,372.5,539.62,368.5,535.62,372.5,544.62" style="stroke:#181818;stroke-width:1.0;"/></g><!--link ParseFrame to Idle--><g id="link_ParseFrame_Idle"><path d="M321.21,442.03 C288.93,429.02 249.84,407.12 230.5,373 C207.94,333.19 219.5989,283.4 230.6589,251.96 " fill="none" id="ParseFrame-to-Idle" style="stroke:#181818;stroke-width:1.0;"/><polygon fill="#181818" points="232.65,246.3,225.89,253.4626,230.9908,251.0167,233.4367,256.1174,232.65,246.3" style="stroke:#181818;stroke-width:1.0;"/><text fill="#000000" font-family="sans-serif" font-size="13" lengthAdjust="spacing" textLength="76" x="231.5" y="352.5669">Frame Error</text></g><!--link ProcessRequest to SendResponse--><g id="link_ProcessRequest_SendResponse"><path d="M385.97,595.46 C395.85,613.41 406.3166,632.4338 416.1866,650.3638 " fill="none" id="ProcessRequest-to-SendResponse" style="stroke:#181818;stroke-width:1.0;"/><polygon fill="#181818" points="419.08,655.62,418.244,645.8067,416.6688,651.2398,411.2357,649.6646,419.08,655.62" style="stroke:#181818;stroke-width:1.0;"/></g><!--link SendResponse to Idle--><g id="link_SendResponse_Idle"><path d="M455.57,655.73 C472.84,634.94 493.5,603.31 493.5,571 C493.5,347 493.5,347 493.5,347 C493.5,246.96 337.7483,227.3544 273.9383,223.3644 " fill="none" id="SendResponse-to-Idle" style="stroke:#181818;stroke-width:1.0;"/><polygon fill="#181818" points="267.95,222.99,276.6828,227.5439,272.9403,223.302,277.1821,219.5595,267.95,222.99" style="stroke:#181818;stroke-width:1.0;"/></g><!--SRC=[NOoz3e8m58NtFaLd4qON1nV1XCtWI1oQzYGsGj5xAmblRw6s8ilDFJ_VQNStMHH7MJlhnNoYCXt4V88AyZJfpkgwb0TPZQ19xdlhH7OpaP10tA4VPr8z0bCghoH1muumOXKbC7Kgee6sXOiYnYB5xuq93HhC3LvliD-ct-5enEL_O6bTuKm3VWwE8TOYRtm0]--></g></svg>