<svg xmlns="http://www.w3.org/2000/svg" xmlns:xlink="http://www.w3.org/1999/xlink" contentStyleType="text/css" height="295px" preserveAspectRatio="none" style="width:205px;height:295px;background:#FFFFFF;" version="1.1" viewBox="0 0 205 295" width="205px" zoomAndPan="magnify"><defs/><g><!--entity Broker--><g id="elem_Broker"><ellipse cx="103" cy="14" fill="#F1F1F1" rx="8" ry="8" style="stroke:#181818;stroke-width:0.5;"/><text fill="#000000" font-family="sans-serif" font-size="14" lengthAdjust="spacing" textLength="46" x="80" y="43.9951">Broker</text></g><!--entity Master--><g id="elem_Master"><rect fill="#F1F1F1" height="46.2969" rx="2.5" ry="2.5" style="stroke:#181818;stroke-width:0.5;" width="192" x="7" y="120"/><rect fill="#F1F1F1" height="10" style="stroke:#181818;stroke-width:0.5;" width="15" x="179" y="125"/><rect fill="#F1F1F1" height="2" style="stroke:#181818;stroke-width:0.5;" width="4" x="177" y="127"/><rect fill="#F1F1F1" height="2" style="stroke:#181818;stroke-width:0.5;" width="4" x="177" y="131"/><text fill="#000000" font-family="sans-serif" font-size="14" lengthAdjust="spacing" textLength="152" x="22" y="152.9951">ESP32 LoRa32 Master</text></g><!--entity Slave--><g id="elem_Slave"><rect fill="#F1F1F1" height="46.2969" rx="2.5" ry="2.5" style="stroke:#181818;stroke-width:0.5;" width="191" x="7.5" y="243.29"/><rect fill="#F1F1F1" height="10" style="stroke:#181818;stroke-width:0.5;" width="15" x="178.5" y="248.29"/><rect fill="#F1F1F1" height="2" style="stroke:#181818;stroke-width:0.5;" width="4" x="176.5" y="250.29"/><rect fill="#F1F1F1" height="2" style="stroke:#181818;stroke-width:0.5;" width="4" x="176.5" y="254.29"/><text fill="#000000" font-family="sans-serif" font-size="14" lengthAdjust="spacing" textLength="151" x="22.5" y="276.2851">ESP32 Wireless Paper</text></g><!--link Broker to Master--><g id="link_Broker_Master"><path d="M103,22.95 C103,41.98 103,90.69 103,119.61 " fill="none" id="Broker-Master" style="stroke:#181818;stroke-width:1.0;stroke-dasharray:7.0,7.0;"/><text fill="#000000" font-family="sans-serif" font-size="13" lengthAdjust="spacing" textLength="35" x="104" y="86.0669">MQTT</text></g><!--link Master to Slave--><g id="link_Master_Slave"><path d="M103,166.68 C103,188.46 103,221.29 103,243.03 " fill="none" id="Master-Slave" style="stroke:#181818;stroke-width:1.0;stroke-dasharray:7.0,7.0;"/><text fill="#000000" font-family="sans-serif" font-size="13" lengthAdjust="spacing" textLength="31" x="104" y="209.3569">LoRa</text><text fill="#000000" font-family="sans-serif" font-size="13" lengthAdjust="spacing" textLength="24" x="75.925" y="232.1936">0..n</text></g><!--SRC=[qz1KK78goizEBLBYYlPDB2v9BOfLI2nMK78D3Z0sKl393qe4KX09e8hWdCIoL6G5uPb5gJcfnSKA0Oa581LS4CCKzFIWcXIi57m3GqAue3oWk9A1dbwUaWBOAA0io0e0]--></g></svg>